<?xml version="1.0" encoding="utf-8"?><svg xmlns="http://www.w3.org/2000/svg" xmlns:xlink="http://www.w3.org/1999/xlink"><symbol fill="none" viewBox="0 0 20 20" id="facebook" xmlns="http://www.w3.org/2000/svg"><path d="M12.563 10.467 13 8.133h-2.188V6.268c0-.72.344-.934 1.313-.934H13V3h-1.75C9.469 3 8.187 4.136 8.187 6.267v1.866H6v2.334h2.188V17h2.624v-6.533h1.75Z" fill="currentColor"/></symbol><symbol fill="none" viewBox="0 0 20 20" id="facebook" xmlns="http://www.w3.org/2000/svg"><path d="M12.563 10.467 13 8.133h-2.188V6.268c0-.72.344-.934 1.313-.934H13V3h-1.75C9.469 3 8.187 4.136 8.187 6.267v1.866H6v2.334h2.188V17h2.624v-6.533h1.75Z" fill="currentColor"/></symbol><symbol fill="none" viewBox="0 0 20 20" id="instagram" xmlns="http://www.w3.org/2000/svg"><path fill-rule="evenodd" clip-rule="evenodd" d="M6.8 2h6.4A4.8 4.8 0 0 1 18 6.8v6.4a4.8 4.8 0 0 1-4.8 4.8H6.8A4.8 4.8 0 0 1 2 13.2V6.8A4.8 4.8 0 0 1 6.8 2Zm0 1.6a3.2 3.2 0 0 0-3.2 3.2v6.4a3.2 3.2 0 0 0 3.2 3.2h6.4a3.2 3.2 0 0 0 3.2-3.2V6.8a3.2 3.2 0 0 0-3.2-3.2H6.8ZM10 14a4 4 0 1 1 0-8 4 4 0 0 1 0 8Zm0-1.6a2.4 2.4 0 1 0 0-4.8 2.4 2.4 0 0 0 0 4.8Zm4-5.6a.8.8 0 1 1 0-1.6.8.8 0 0 1 0 1.6Z" fill="currentColor"/></symbol><symbol fill="none" viewBox="0 0 20 20" id="instagram" xmlns="http://www.w3.org/2000/svg"><path fill-rule="evenodd" clip-rule="evenodd" d="M6.8 2h6.4A4.8 4.8 0 0 1 18 6.8v6.4a4.8 4.8 0 0 1-4.8 4.8H6.8A4.8 4.8 0 0 1 2 13.2V6.8A4.8 4.8 0 0 1 6.8 2Zm0 1.6a3.2 3.2 0 0 0-3.2 3.2v6.4a3.2 3.2 0 0 0 3.2 3.2h6.4a3.2 3.2 0 0 0 3.2-3.2V6.8a3.2 3.2 0 0 0-3.2-3.2H6.8ZM10 14a4 4 0 1 1 0-8 4 4 0 0 1 0 8Zm0-1.6a2.4 2.4 0 1 0 0-4.8 2.4 2.4 0 0 0 0 4.8Zm4-5.6a.8.8 0 1 1 0-1.6.8.8 0 0 1 0 1.6Z" fill="currentColor"/></symbol><symbol fill="none" viewBox="0 0 20 20" id="linkedin" xmlns="http://www.w3.org/2000/svg"><path d="M6.205 3.75a1.5 1.5 0 1 1-3-.002 1.5 1.5 0 0 1 3 .002Zm.045 2.61h-3v9.39h3V6.36Zm4.74 0H8.005v9.39h2.955v-4.928c0-2.745 3.577-3 3.577 0v4.928H17.5V9.802c0-4.627-5.295-4.455-6.54-2.182l.03-1.26Z" fill="currentColor"/></symbol><symbol fill="none" viewBox="0 0 20 20" id="linkedin" xmlns="http://www.w3.org/2000/svg"><path d="M6.205 3.75a1.5 1.5 0 1 1-3-.002 1.5 1.5 0 0 1 3 .002Zm.045 2.61h-3v9.39h3V6.36Zm4.74 0H8.005v9.39h2.955v-4.928c0-2.745 3.577-3 3.577 0v4.928H17.5V9.802c0-4.627-5.295-4.455-6.54-2.182l.03-1.26Z" fill="currentColor"/></symbol><symbol fill="none" viewBox="0 0 20 20" id="twitter" xmlns="http://www.w3.org/2000/svg"><path d="M15.359 5.901a2.889 2.889 0 0 0 1.248-1.672 6.522 6.522 0 0 1-1.828.708A2.646 2.646 0 0 0 12.71 4c-.811 0-1.496.3-2.056.886-.556.59-.836 1.305-.836 2.14 0 .255.03.482.09.674-2.392-.086-4.372-1.135-5.932-3.153a3.17 3.17 0 0 0-.397 1.517c0 1.069.427 1.916 1.28 2.538a3.052 3.052 0 0 1-1.28-.386c0 .764.213 1.401.638 1.963.427.555.975.91 1.645 1.06a2.912 2.912 0 0 1-.761.098c-.243 0-.415-.022-.517-.069a2.907 2.907 0 0 0 1.004 1.514 2.744 2.744 0 0 0 1.674.61 5.412 5.412 0 0 1-3.56 1.284c-.329 0-.561-.005-.702-.031C4.32 15.55 5.789 16 7.414 16c1.664 0 3.134-.445 4.413-1.336 1.28-.886 2.224-1.98 2.83-3.266a9.263 9.263 0 0 0 .912-4.021v-.385A6.265 6.265 0 0 0 17 5.414a6.072 6.072 0 0 1-1.641.487Z" fill="currentColor"/></symbol><symbol fill="none" viewBox="0 0 20 20" id="twitter" xmlns="http://www.w3.org/2000/svg"><path d="M15.359 5.901a2.889 2.889 0 0 0 1.248-1.672 6.522 6.522 0 0 1-1.828.708A2.646 2.646 0 0 0 12.71 4c-.811 0-1.496.3-2.056.886-.556.59-.836 1.305-.836 2.14 0 .255.03.482.09.674-2.392-.086-4.372-1.135-5.932-3.153a3.17 3.17 0 0 0-.397 1.517c0 1.069.427 1.916 1.28 2.538a3.052 3.052 0 0 1-1.28-.386c0 .764.213 1.401.638 1.963.427.555.975.91 1.645 1.06a2.912 2.912 0 0 1-.761.098c-.243 0-.415-.022-.517-.069a2.907 2.907 0 0 0 1.004 1.514 2.744 2.744 0 0 0 1.674.61 5.412 5.412 0 0 1-3.56 1.284c-.329 0-.561-.005-.702-.031C4.32 15.55 5.789 16 7.414 16c1.664 0 3.134-.445 4.413-1.336 1.28-.886 2.224-1.98 2.83-3.266a9.263 9.263 0 0 0 .912-4.021v-.385A6.265 6.265 0 0 0 17 5.414a6.072 6.072 0 0 1-1.641.487Z" fill="currentColor"/></symbol><symbol fill="none" viewBox="0 0 20 18" id="youtube" xmlns="http://www.w3.org/2000/svg"><path d="M17.666 4.878c-.184-.74-.727-1.322-1.415-1.52C15.003 3 10 3 10 3s-5.003 0-6.251.359c-.688.198-1.23.78-1.415 1.519C2 6.218 2 9.012 2 9.012s0 2.795.334 4.135A2.05 2.05 0 0 0 3.75 14.64C4.997 15 10 15 10 15s5.003 0 6.251-.359a2.05 2.05 0 0 0 1.415-1.494C18 11.807 18 9.012 18 9.012s0-2.795-.334-4.134ZM8.364 11.55V6.475l4.181 2.537-4.181 2.538Z" fill="currentColor"/></symbol><symbol fill="none" viewBox="0 0 20 18" id="youtube" xmlns="http://www.w3.org/2000/svg"><path d="M17.666 4.878c-.184-.74-.727-1.322-1.415-1.52C15.003 3 10 3 10 3s-5.003 0-6.251.359c-.688.198-1.23.78-1.415 1.519C2 6.218 2 9.012 2 9.012s0 2.795.334 4.135A2.05 2.05 0 0 0 3.75 14.64C4.997 15 10 15 10 15s5.003 0 6.251-.359a2.05 2.05 0 0 0 1.415-1.494C18 11.807 18 9.012 18 9.012s0-2.795-.334-4.134ZM8.364 11.55V6.475l4.181 2.537-4.181 2.538Z" fill="currentColor"/></symbol></svg>